<?xml version="1.0" encoding="UTF-8"?>
<svg width="100" height="200" viewBox="0 0 100 200" fill="none" xmlns="http://www.w3.org/2000/svg">
  <g opacity="0.9">
    <!-- Glass stem -->
    <path d="M50 120L50 180" stroke="#d4c1a9" stroke-width="4" stroke-linecap="round"/>
    
    <!-- Glass base -->
    <path d="M30 180H70" stroke="#d4c1a9" stroke-width="4" stroke-linecap="round"/>
    
    <!-- Glass bowl -->
    <path d="M20 40C20 20 50 10 50 10C50 10 80 20 80 40C80 60 65 100 65 100H35C35 100 20 60 20 40Z" stroke="#d4c1a9" stroke-width="4" fill="none"/>
    
    <!-- Champagne bubbles -->
    <circle cx="45" cy="30" r="2" fill="#d4c1a9"/>
    <circle cx="55" cy="25" r="1.5" fill="#d4c1a9"/>
    <circle cx="48" cy="40" r="2" fill="#d4c1a9"/>
    <circle cx="60" cy="35" r="1" fill="#d4c1a9"/>
    <circle cx="40" cy="45" r="1.5" fill="#d4c1a9"/>
    <circle cx="52" cy="55" r="1" fill="#d4c1a9"/>
    <circle cx="58" cy="65" r="1.5" fill="#d4c1a9"/>
    <circle cx="45" cy="75" r="1" fill="#d4c1a9"/>
    
    <!-- Champagne liquid -->
    <path d="M35 100C35 100 37 80 50 80C63 80 65 100 65 100" fill="#f0e6d2" stroke="none"/>
  </g>
</svg>
